<svg xmlns="http://www.w3.org/2000/svg" viewBox="0 0 24 24"><style>.Graphic_x0020_Style_x0020_20{fill:#CCE7FF;} .st0{fill:#FFFFFF;} .st1{fill:#CCE7FF;} .st2{fill:none;stroke:#1078FF;stroke-linecap:round;stroke-linejoin:round;stroke-miterlimit:10;} .st3{fill:none;stroke:#1078FF;stroke-linejoin:round;stroke-miterlimit:10;} .st4{fill:#1078FF;} .st5{fill:none;}</style><g id="Duotone"><path class="st0" d="M11.5 3.5L3.5 8v9l8 4.5 8-4.5V8z"/><path class="st1" d="M11.5 1.5L1.5 7v11l10 5.5 10-5.5V7l-10-5.5zm8 15.5L18 15.5 11.5 19 5 15.5 3.5 17V8l8-4.5 8 4.5v9z"/><path class="Graphic_x0020_Style_x0020_20" d="M13.4 10.5l-4.7 4.7L8 17l3.5-2.5L15 17l-1.5-4 3-2.5z"/><path class="st2" d="M21.5 18l-10 5.5-10-5.5V7l10-5.5 10 5.5z"/><path class="st2" d="M11.5 3.5L3.5 8v9l8 4.5 8-4.5V8z"/><path class="st2" d="M11.5 7l1.5 3.5h3.5l-3 2.5 1.5 4-3.5-2.5L8 17l1.5-4-3-2.5H10z"/></g><path class="st5" d="M0 0h24v24H0z" id="Frames-24px"/></svg>